# xmcd
#
# Track frame offsets: 
#        150
#        12219
#        26876
#        43692
#        57058
#
# Disc length: 956 seconds
#
# Revision: 0
# Processed by: cddbd v1.5.2PL0 Copyright (c) Steve Scherf et al.
# Submitted via: ExactAudioCopyFreeDBPlugin 1.0
#
DISCID=3703ba05
DTITLE=Emi Meyer - LOL
DYEAR=2012
DGENRE=Pop
TTITLE0=lol
TTITLE1=Doin' Great (acoustic version)
TTITLE2=Still
TTITLE3=What Kind
TTITLE4=On The Road (PRIUS version)
EXTD=
EXTT0=
EXTT1=
EXTT2=
EXTT3=
EXTT4=
PLAYORDER=
